<svg width="12" height="12" viewBox="0 0 12 12" fill="none" xmlns="http://www.w3.org/2000/svg">
<path fill-rule="evenodd" clip-rule="evenodd" d="M6.65559 2.44505C7.13297 1.96766 7.78045 1.69946 8.45559 1.69946C9.13072 1.69946 9.7782 1.96766 10.2556 2.44505C10.733 2.92244 11.0012 3.56992 11.0012 4.24505C11.0012 4.92018 10.733 5.56766 10.2556 6.04505L9.60059 6.70005L6.00059 10.3L2.40058 6.70005L1.74558 6.04505C1.26819 5.56766 1 4.92018 1 4.24505C1 3.56992 1.26819 2.92244 1.74558 2.44505C2.22297 1.96766 2.87045 1.69946 3.54558 1.69946C4.22072 1.69946 4.86819 1.96766 5.34558 2.44505L6.00059 3.10005L6.65559 2.44505Z" stroke="#E6704B" stroke-linecap="round" stroke-linejoin="bevel"/>
</svg>
